<svg xmlns="http://www.w3.org/2000/svg" viewBox="0 0 32 32" shape-rendering="crispEdges">
  <path fill="#0a1024" d="M0 0h32v32H0z" opacity=".2"/>
  <path fill="#34476f" d="M5 24h3v3H5zm3-3h3v3H8zm3-3h3v3h-3zm3-3h3v3h-3zm3-3h3v3h-3z"/>
  <path fill="#f2b84c" d="M6 23h3v3H6zm3-3h3v3H9zm3-3h3v3h-3zm3-3h3v3h-3zm3-3h3v3h-3z"/>
  <path fill="#fff0a8" d="M8 22h2v2H8zm3-3h2v2h-2zm3-3h2v2h-2zm3-3h2v2h-2z"/>
  <path fill="#6e8bc0" d="M19 7h3v3h-3zm-3-3h3v3h-3zm6 0h3v3h-3zm3 3h3v3h-3zm-3 3h3v3h-3z"/>
  <path fill="#d9fbff" d="M20 2h3v5h5v3h-5v5h-3v-5h-5V7h5z"/>
  <path fill="#72e5f4" d="M21 5h1v3h3v1h-3v3h-1V9h-3V8h3z"/>
  <path fill="#fff4b5" d="M5 7h2v4h4v2H7v4H5v-4H1v-2h4zm21 12h2v3h3v2h-3v3h-2v-3h-3v-2h3z"/>
</svg>
